<svg xmlns="http://www.w3.org/2000/svg" viewBox="0 0 100 100" width="100" height="100">
  <defs>
    <linearGradient id="hallGrad" x1="0%" y1="0%" x2="100%" y2="100%">
      <stop offset="0%" style="stop-color:#8e24aa;stop-opacity:1" />
      <stop offset="100%" style="stop-color:#5e35b1;stop-opacity:1" />
    </linearGradient>
  </defs>
  
  <!-- Background circle -->
  <circle cx="50" cy="50" r="45" fill="url(#hallGrad)" stroke="#fff" stroke-width="2"/>
  
  <!-- Hall building -->
  <rect x="25" y="35" width="50" height="35" fill="#fff" stroke="#ddd" stroke-width="1" rx="3"/>
  
  <!-- Roof -->
  <polygon points="20,35 50,20 80,35" fill="#ff7043" stroke="#e64a19" stroke-width="1"/>
  
  <!-- Door -->
  <rect x="45" y="55" width="10" height="15" fill="#8d6e63" rx="1"/>
  <circle cx="52" cy="62" r="1" fill="#ffd54f"/>
  
  <!-- Windows -->
  <rect x="30" y="45" width="8" height="8" fill="#81c784" stroke="#4caf50" stroke-width="1"/>
  <rect x="62" y="45" width="8" height="8" fill="#81c784" stroke="#4caf50" stroke-width="1"/>
  <line x1="34" y1="45" x2="34" y2="53" stroke="#4caf50" stroke-width="1"/>
  <line x1="30" y1="49" x2="38" y2="49" stroke="#4caf50" stroke-width="1"/>
  <line x1="66" y1="45" x2="66" y2="53" stroke="#4caf50" stroke-width="1"/>
  <line x1="62" y1="49" x2="70" y2="49" stroke="#4caf50" stroke-width="1"/>
  
  <!-- Pillars -->
  <rect x="28" y="60" width="3" height="10" fill="#bdbdbd"/>
  <rect x="69" y="60" width="3" height="10" fill="#bdbdbd"/>
  
  <!-- Steps -->
  <rect x="35" y="68" width="30" height="2" fill="#e0e0e0"/>
  <rect x="37" y="66" width="26" height="2" fill="#e0e0e0"/>
</svg>