<svg xmlns="http://www.w3.org/2000/svg" viewBox="0 0 100 100" width="100" height="100">
  <defs>
    <linearGradient id="kidsPoolGrad" x1="0%" y1="0%" x2="100%" y2="100%">
      <stop offset="0%" style="stop-color:#ff9800;stop-opacity:1" />
      <stop offset="100%" style="stop-color:#f57c00;stop-opacity:1" />
    </linearGradient>
  </defs>
  
  <!-- Background circle -->
  <circle cx="50" cy="50" r="45" fill="url(#kidsPoolGrad)" stroke="#fff" stroke-width="2"/>
  
  <!-- Small pool -->
  <ellipse cx="50" cy="55" rx="25" ry="15" fill="#4fc3f7" stroke="#fff" stroke-width="2"/>
  
  <!-- Water waves -->
  <path d="M30 50 Q40 47, 50 50 T70 50" fill="none" stroke="#e1f5fe" stroke-width="2"/>
  <path d="M28 55 Q38 52, 48 55 T68 55" fill="none" stroke="#e1f5fe" stroke-width="1.5"/>
  <path d="M32 60 Q42 57, 52 60 T72 60" fill="none" stroke="#e1f5fe" stroke-width="1"/>
  
  <!-- Rubber duck -->
  <ellipse cx="45" cy="52" rx="6" ry="4" fill="#ffd54f"/>
  <circle cx="42" cy="50" r="3" fill="#ffd54f"/>
  <circle cx="40" cy="49" r="1" fill="#333"/>
  <path d="M38 50 Q37 49, 38 48" fill="none" stroke="#ff9800" stroke-width="1"/>
  
  <!-- Water slide -->
  <path d="M70 35 Q75 40, 70 45 Q65 50, 70 55" fill="none" stroke="#e91e63" stroke-width="4" stroke-linecap="round"/>
  <circle cx="70" cy="33" r="3" fill="#e91e63"/>
  
  <!-- Beach ball -->
  <circle cx="65" cy="45" r="5" fill="#fff" stroke="#e91e63" stroke-width="1"/>
  <path d="M60 45 Q65 40, 70 45" fill="#e91e63"/>
  <path d="M60 45 Q65 50, 70 45" fill="#2196f3"/>
  
  <!-- Sun -->
  <circle cx="25" cy="25" r="6" fill="#ffd54f"/>
  <line x1="25" y1="15" x2="25" y2="18" stroke="#ffd54f" stroke-width="2"/>
  <line x1="35" y1="25" x2="32" y2="25" stroke="#ffd54f" stroke-width="2"/>
  <line x1="31" y1="19" x2="29" y2="21" stroke="#ffd54f" stroke-width="2"/>
  <line x1="31" y1="31" x2="29" y2="29" stroke="#ffd54f" stroke-width="2"/>
</svg>