<svg xmlns="http://www.w3.org/2000/svg" viewBox="0 0 100 100" width="100" height="100">
  <defs>
    <linearGradient id="poolGrad" x1="0%" y1="0%" x2="100%" y2="100%">
      <stop offset="0%" style="stop-color:#00b8d4;stop-opacity:1" />
      <stop offset="100%" style="stop-color:#0277bd;stop-opacity:1" />
    </linearGradient>
  </defs>
  
  <!-- Background circle -->
  <circle cx="50" cy="50" r="45" fill="url(#poolGrad)" stroke="#fff" stroke-width="2"/>
  
  <!-- Pool -->
  <ellipse cx="50" cy="55" rx="30" ry="20" fill="#4fc3f7" stroke="#fff" stroke-width="2"/>
  
  <!-- Water waves -->
  <path d="M25 50 Q35 45, 45 50 T65 50 T85 50" fill="none" stroke="#e1f5fe" stroke-width="2"/>
  <path d="M20 55 Q30 50, 40 55 T60 55 T80 55" fill="none" stroke="#e1f5fe" stroke-width="1.5"/>
  <path d="M25 60 Q35 55, 45 60 T65 60 T85 60" fill="none" stroke="#e1f5fe" stroke-width="1"/>
  
  <!-- Pool ladder -->
  <rect x="70" y="45" width="3" height="20" fill="#fff" rx="1"/>
  <rect x="67" y="48" width="9" height="2" fill="#fff" rx="1"/>
  <rect x="67" y="53" width="9" height="2" fill="#fff" rx="1"/>
  <rect x="67" y="58" width="9" height="2" fill="#fff" rx="1"/>
  
  <!-- Sun -->
  <circle cx="75" cy="25" r="8" fill="#ffd54f"/>
  <line x1="75" y1="12" x2="75" y2="15" stroke="#ffd54f" stroke-width="2"/>
  <line x1="88" y1="25" x2="85" y2="25" stroke="#ffd54f" stroke-width="2"/>
  <line x1="82" y1="18" x2="80" y2="20" stroke="#ffd54f" stroke-width="2"/>
  <line x1="82" y1="32" x2="80" y2="30" stroke="#ffd54f" stroke-width="2"/>
</svg>