<svg xmlns="http://www.w3.org/2000/svg" viewBox="0 0 100 100" width="100" height="100">
  <defs>
    <linearGradient id="weddingGrad" x1="0%" y1="0%" x2="100%" y2="100%">
      <stop offset="0%" style="stop-color:#ff6b9d;stop-opacity:1" />
      <stop offset="100%" style="stop-color:#c44569;stop-opacity:1" />
    </linearGradient>
  </defs>
  
  <!-- Background circle -->
  <circle cx="50" cy="50" r="45" fill="url(#weddingGrad)" stroke="#fff" stroke-width="2"/>
  
  <!-- Wedding rings -->
  <circle cx="42" cy="45" r="8" fill="none" stroke="#fff" stroke-width="2"/>
  <circle cx="58" cy="45" r="8" fill="none" stroke="#fff" stroke-width="2"/>
  
  <!-- Hearts -->
  <path d="M35 35 C35 32, 37 30, 40 30 C43 30, 45 32, 45 35 C45 32, 47 30, 50 30 C53 30, 55 32, 55 35 C55 38, 50 43, 45 48 C40 43, 35 38, 35 35 Z" fill="#fff"/>
  
  <!-- Wedding cake -->
  <rect x="40" y="55" width="20" height="8" fill="#fff" rx="2"/>
  <rect x="42" y="50" width="16" height="6" fill="#fff" rx="2"/>
  <rect x="44" y="45" width="12" height="6" fill="#fff" rx="2"/>
  
  <!-- Candles -->
  <line x1="47" y1="45" x2="47" y2="42" stroke="#ffd700" stroke-width="1"/>
  <line x1="53" y1="45" x2="53" y2="42" stroke="#ffd700" stroke-width="1"/>
  <circle cx="47" cy="41" r="1" fill="#ff6b35"/>
  <circle cx="53" cy="41" r="1" fill="#ff6b35"/>
</svg>