<svg width="500" height="500" viewBox="0 0 500 500" xmlns="http://www.w3.org/2000/svg">
  <defs>
    <linearGradient id="skyGradient2" x1="0%" y1="0%" x2="0%" y2="100%">
      <stop offset="0%" style="stop-color:#FFE4B5;stop-opacity:1" />
      <stop offset="100%" style="stop-color:#87CEEB;stop-opacity:1" />
    </linearGradient>
    <linearGradient id="poolGradient2" x1="0%" y1="0%" x2="0%" y2="100%">
      <stop offset="0%" style="stop-color:#40E0D0;stop-opacity:1" />
      <stop offset="100%" style="stop-color:#008B8B;stop-opacity:1" />
    </linearGradient>
    <linearGradient id="palmGradient" x1="0%" y1="0%" x2="0%" y2="100%">
      <stop offset="0%" style="stop-color:#32CD32;stop-opacity:1" />
      <stop offset="100%" style="stop-color:#006400;stop-opacity:1" />
    </linearGradient>
  </defs>
  
  <!-- Sky background -->
  <rect width="500" height="350" fill="url(#skyGradient2)"/>
  
  <!-- Sun -->
  <circle cx="400" cy="80" r="30" fill="#FFD700" opacity="0.8"/>
  <path d="M 400 30 L 400 50 M 370 80 L 390 80 M 410 80 L 430 80 M 400 110 L 400 130 M 380 60 L 390 70 M 410 70 L 420 60 M 380 100 L 390 90 M 410 90 L 420 100" stroke="#FFD700" stroke-width="3" opacity="0.6"/>
  
  <!-- Mountains/hills in background -->
  <path d="M 0 250 Q 100 200 200 230 Q 300 180 400 220 Q 450 200 500 230 L 500 350 L 0 350 Z" fill="#8FBC8F" opacity="0.6"/>
  
  <!-- Palm trees -->
  <rect x="50" y="220" width="12" height="130" fill="#8B4513"/>
  <ellipse cx="56" cy="210" rx="35" ry="20" fill="url(#palmGradient)" transform="rotate(-20 56 210)"/>
  <ellipse cx="56" cy="200" rx="30" ry="18" fill="url(#palmGradient)" transform="rotate(15 56 200)"/>
  <ellipse cx="56" cy="190" rx="25" ry="15" fill="url(#palmGradient)" transform="rotate(-30 56 190)"/>
  <ellipse cx="56" cy="180" rx="28" ry="16" fill="url(#palmGradient)" transform="rotate(25 56 180)"/>
  
  <rect x="450" y="200" width="15" height="150" fill="#8B4513"/>
  <ellipse cx="457" cy="190" rx="40" ry="22" fill="url(#palmGradient)" transform="rotate(-15 457 190)"/>
  <ellipse cx="457" cy="178" rx="35" ry="20" fill="url(#palmGradient)" transform="rotate(20 457 178)"/>
  <ellipse cx="457" cy="166" rx="30" ry="18" fill="url(#palmGradient)" transform="rotate(-25 457 166)"/>
  <ellipse cx="457" cy="154" rx="32" ry="19" fill="url(#palmGradient)" transform="rotate(30 457 154)"/>
  
  <!-- Resort pool -->
  <ellipse cx="250" cy="400" rx="200" ry="90" fill="url(#poolGradient2)"/>
  <ellipse cx="250" cy="395" rx="180" ry="80" fill="#20B2AA" opacity="0.7"/>
  
  <!-- Pool deck with pattern -->
  <rect x="30" y="350" width="440" height="60" fill="#F5DEB3"/>
  <rect x="40" y="360" width="20" height="20" fill="#DEB887"/>
  <rect x="80" y="360" width="20" height="20" fill="#DEB887"/>
  <rect x="120" y="360" width="20" height="20" fill="#DEB887"/>
  <rect x="160" y="360" width="20" height="20" fill="#DEB887"/>
  <rect x="200" y="360" width="20" height="20" fill="#DEB887"/>
  <rect x="240" y="360" width="20" height="20" fill="#DEB887"/>
  <rect x="280" y="360" width="20" height="20" fill="#DEB887"/>
  <rect x="320" y="360" width="20" height="20" fill="#DEB887"/>
  <rect x="360" y="360" width="20" height="20" fill="#DEB887"/>
  <rect x="400" y="360" width="20" height="20" fill="#DEB887"/>
  <rect x="440" y="360" width="20" height="20" fill="#DEB887"/>
  
  <!-- Pool umbrellas -->
  <rect x="150" y="320" width="4" height="40" fill="#8B4513"/>
  <path d="M 130 320 Q 154 300 178 320 Z" fill="#FF6347"/>
  <path d="M 135 315 Q 154 305 173 315" stroke="#FF4500" stroke-width="2" fill="none"/>
  
  <rect x="350" y="315" width="4" height="45" fill="#8B4513"/>
  <path d="M 330 315 Q 354 295 378 315 Z" fill="#32CD32"/>
  <path d="M 335 310 Q 354 300 373 310" stroke="#228B22" stroke-width="2" fill="none"/>
  
  <!-- Lounge chairs -->
  <rect x="180" y="340" width="30" height="8" fill="#4169E1" rx="2"/>
  <rect x="185" y="335" width="20" height="5" fill="#4169E1" rx="1"/>
  
  <rect x="290" y="340" width="30" height="8" fill="#FF69B4" rx="2"/>
  <rect x="295" y="335" width="20" height="5" fill="#FF69B4" rx="1"/>
  
  <!-- Tropical plants -->
  <ellipse cx="100" cy="470" rx="15" ry="25" fill="#228B22"/>
  <ellipse cx="110" cy="465" rx="12" ry="20" fill="#32CD32"/>
  <ellipse cx="120" cy="470" rx="10" ry="18" fill="#228B22"/>
  
  <ellipse cx="380" cy="470" rx="18" ry="28" fill="#228B22"/>
  <ellipse cx="390" cy="465" rx="15" ry="23" fill="#32CD32"/>
  <ellipse cx="400" cy="470" rx="12" ry="20" fill="#228B22"/>
  
  <!-- Ground -->
  <rect x="0" y="480" width="500" height="20" fill="#90EE90"/>
</svg>