<svg width="500" height="500" viewBox="0 0 500 500" xmlns="http://www.w3.org/2000/svg">
  <defs>
    <linearGradient id="skyGradient" x1="0%" y1="0%" x2="0%" y2="100%">
      <stop offset="0%" style="stop-color:#87CEEB;stop-opacity:1" />
      <stop offset="100%" style="stop-color:#4682B4;stop-opacity:1" />
    </linearGradient>
    <linearGradient id="poolGradient" x1="0%" y1="0%" x2="0%" y2="100%">
      <stop offset="0%" style="stop-color:#00BFFF;stop-opacity:1" />
      <stop offset="100%" style="stop-color:#1E90FF;stop-opacity:1" />
    </linearGradient>
    <linearGradient id="greenGradient" x1="0%" y1="0%" x2="0%" y2="100%">
      <stop offset="0%" style="stop-color:#90EE90;stop-opacity:1" />
      <stop offset="100%" style="stop-color:#228B22;stop-opacity:1" />
    </linearGradient>
  </defs>
  
  <!-- Sky background -->
  <rect width="500" height="300" fill="url(#skyGradient)"/>
  
  <!-- Clouds -->
  <ellipse cx="100" cy="80" rx="30" ry="15" fill="white" opacity="0.8"/>
  <ellipse cx="120" cy="75" rx="25" ry="12" fill="white" opacity="0.8"/>
  <ellipse cx="140" cy="80" rx="20" ry="10" fill="white" opacity="0.8"/>
  
  <ellipse cx="350" cy="60" rx="35" ry="18" fill="white" opacity="0.7"/>
  <ellipse cx="375" cy="55" rx="28" ry="14" fill="white" opacity="0.7"/>
  <ellipse cx="400" cy="60" rx="22" ry="11" fill="white" opacity="0.7"/>
  
  <!-- Palm trees -->
  <rect x="80" y="200" width="8" height="100" fill="#8B4513"/>
  <ellipse cx="84" cy="190" rx="25" ry="15" fill="url(#greenGradient)"/>
  <ellipse cx="84" cy="180" rx="20" ry="12" fill="url(#greenGradient)"/>
  <ellipse cx="84" cy="170" rx="15" ry="10" fill="url(#greenGradient)"/>
  
  <rect x="420" y="180" width="10" height="120" fill="#8B4513"/>
  <ellipse cx="425" cy="170" rx="30" ry="18" fill="url(#greenGradient)"/>
  <ellipse cx="425" cy="158" rx="25" ry="15" fill="url(#greenGradient)"/>
  <ellipse cx="425" cy="146" rx="20" ry="12" fill="url(#greenGradient)"/>
  
  <!-- Pool area -->
  <ellipse cx="250" cy="380" rx="180" ry="80" fill="url(#poolGradient)"/>
  <ellipse cx="250" cy="375" rx="160" ry="70" fill="#00BFFF" opacity="0.8"/>
  
  <!-- Pool deck -->
  <rect x="50" y="300" width="400" height="50" fill="#D2B48C"/>
  
  <!-- Colorful playground structure -->
  <rect x="200" y="320" width="100" height="60" fill="#FF6B6B" rx="5"/>
  <rect x="220" y="300" width="20" height="20" fill="#4ECDC4" rx="3"/>
  <rect x="250" y="300" width="20" height="20" fill="#45B7D1" rx="3"/>
  <rect x="280" y="300" width="20" height="20" fill="#96CEB4" rx="3"/>
  
  <!-- Slide -->
  <path d="M 320 320 Q 340 310 360 330 L 360 350 Q 340 360 320 350 Z" fill="#FFD93D"/>
  
  <!-- Ground/grass -->
  <rect x="0" y="450" width="500" height="50" fill="url(#greenGradient)"/>
  
  <!-- Decorative elements -->
  <circle cx="150" cy="470" r="8" fill="#FF69B4"/>
  <circle cx="170" cy="465" r="6" fill="#FF1493"/>
  <circle cx="190" cy="470" r="7" fill="#FF69B4"/>
  
  <circle cx="320" cy="470" r="8" fill="#32CD32"/>
  <circle cx="340" cy="465" r="6" fill="#00FF00"/>
  <circle cx="360" cy="470" r="7" fill="#32CD32"/>
</svg>